<mxfile host="app.diagrams.net" modified="2022-03-12T01:14:22.024Z" agent="5.0 (Macintosh; Intel Mac OS X 10_15_7) AppleWebKit/537.36 (KHTML, like Gecko) Chrome/99.0.4844.51 Safari/537.36" etag="clwuoD2_r4_BjDQ63CdP" version="16.6.7" type="github">
  <diagram id="3228e29e-7158-1315-38df-8450db1d8a1d" name="Page-1">
    <mxGraphModel dx="1798" dy="349" grid="0" gridSize="10" guides="1" tooltips="1" connect="1" arrows="1" fold="1" page="1" pageScale="1" pageWidth="500" pageHeight="350" background="#EFF1F3" math="0" shadow="0">
      <root>
        <mxCell id="0" />
        <mxCell id="1" parent="0" />
        <mxCell id="23iM9Gp5Ji6-i4gFpPbt-19" value="" style="rounded=1;whiteSpace=wrap;html=1;fillColor=none;strokeColor=#4A919B;strokeWidth=2;" parent="1" vertex="1">
          <mxGeometry x="-15" y="369" width="475.29" height="147.75" as="geometry" />
        </mxCell>
        <mxCell id="23iM9Gp5Ji6-i4gFpPbt-25" value="&lt;font size=&quot;1&quot; color=&quot;#4a919b&quot;&gt;&lt;b style=&quot;font-size: 18px&quot;&gt;buffer pool&lt;/b&gt;&lt;/font&gt;" style="text;html=1;strokeColor=none;fillColor=none;align=center;verticalAlign=middle;whiteSpace=wrap;rounded=0;" parent="1" vertex="1">
          <mxGeometry x="196" y="367" width="107.5" height="32.5" as="geometry" />
        </mxCell>
        <mxCell id="g9KwYvelNcx-eXB0xMGi-1" value="&lt;font color=&quot;#ffffff&quot; style=&quot;font-size: 16px&quot;&gt;16kb&lt;br&gt;数据页&lt;/font&gt;" style="whiteSpace=wrap;html=1;aspect=fixed;rounded=1;strokeColor=none;fillColor=#4A919B;" parent="1" vertex="1">
          <mxGeometry x="196" y="408.25" width="80" height="80" as="geometry" />
        </mxCell>
        <mxCell id="g9KwYvelNcx-eXB0xMGi-3" value="&lt;font color=&quot;#ffffff&quot; style=&quot;font-size: 16px&quot;&gt;16kb&lt;br&gt;数据页&lt;/font&gt;" style="whiteSpace=wrap;html=1;aspect=fixed;rounded=1;strokeColor=none;fillColor=#4A919B;" parent="1" vertex="1">
          <mxGeometry x="282" y="408.25" width="80" height="80" as="geometry" />
        </mxCell>
        <mxCell id="g9KwYvelNcx-eXB0xMGi-5" value="&lt;font color=&quot;#ffffff&quot; style=&quot;font-size: 16px&quot;&gt;16kb&lt;br&gt;数据页&lt;/font&gt;" style="whiteSpace=wrap;html=1;aspect=fixed;rounded=1;strokeColor=none;fillColor=#4A919B;" parent="1" vertex="1">
          <mxGeometry x="367.65" y="408.25" width="80" height="80" as="geometry" />
        </mxCell>
        <mxCell id="cIFiBRbQ3A3a96ED3rv--2" value="" style="rounded=1;whiteSpace=wrap;html=1;fillColor=none;strokeColor=#535E80;strokeWidth=2;dashed=1;" vertex="1" parent="1">
          <mxGeometry x="-2" y="377" width="192" height="130" as="geometry" />
        </mxCell>
        <mxCell id="cIFiBRbQ3A3a96ED3rv--3" value="&lt;font color=&quot;#ffffff&quot;&gt;&lt;span style=&quot;font-size: 16px&quot;&gt;insert xx&lt;/span&gt;&lt;/font&gt;" style="whiteSpace=wrap;html=1;aspect=fixed;rounded=1;strokeColor=none;fillColor=#535E80;" vertex="1" parent="1">
          <mxGeometry x="8" y="408.25" width="80" height="80" as="geometry" />
        </mxCell>
        <mxCell id="cIFiBRbQ3A3a96ED3rv--4" value="&lt;font color=&quot;#ffffff&quot;&gt;&lt;span style=&quot;font-size: 16px&quot;&gt;update xx&lt;/span&gt;&lt;/font&gt;" style="whiteSpace=wrap;html=1;aspect=fixed;rounded=1;strokeColor=none;fillColor=#535E80;" vertex="1" parent="1">
          <mxGeometry x="102" y="408.25" width="80" height="80" as="geometry" />
        </mxCell>
        <mxCell id="cIFiBRbQ3A3a96ED3rv--5" value="&lt;font size=&quot;1&quot; color=&quot;#535e80&quot;&gt;&lt;b style=&quot;font-size: 18px&quot;&gt;change buffer&lt;/b&gt;&lt;/font&gt;" style="text;html=1;strokeColor=none;fillColor=none;align=center;verticalAlign=middle;whiteSpace=wrap;rounded=0;" vertex="1" parent="1">
          <mxGeometry x="22.13" y="376" width="143.75" height="32.25" as="geometry" />
        </mxCell>
      </root>
    </mxGraphModel>
  </diagram>
</mxfile>
